REM DIRINDEX 1\5,1\2\6,1\2\7,1\3\8,1\3\9,1\4\10,1\4\11,1\4\12
REM DIRNAME folder01,folder02,folder03,folder04,folder05,folder06,folder07,folder08,folder09,folder10,folder11,folder12
TITLE ""
FILE "JE_DB3000_5th_5C_03.mp3" MP3
  TRACK 01 AUDIO
    TITLE "0:"
    INDEX 01 00:00:00
  TRACK 02 AUDIO
    TITLE "6:cjc026_02145"
    INDEX 01 00:00:05
  TRACK 03 AUDIO
    TITLE "0:"
    INDEX 01 00:00:72
  TRACK 04 AUDIO
    TITLE "7:cjc026_02146"
    INDEX 01 00:01:22
  TRACK 05 AUDIO
    TITLE "0:"
    INDEX 01 00:02:08
  TRACK 06 AUDIO
    TITLE "6:cjc026_02147"
    INDEX 01 00:02:34
  TRACK 07 AUDIO
    TITLE "0:"
    INDEX 01 00:03:29
  TRACK 08 AUDIO
    TITLE "7:cjc026_02148"
    INDEX 01 00:03:55
  TRACK 09 AUDIO
    TITLE "0:"
    INDEX 01 00:04:52
  TRACK 10 AUDIO
    TITLE "6:cjc026_02149"
    INDEX 01 00:05:01
  TRACK 11 AUDIO
    TITLE "0:"
    INDEX 01 00:06:04
  TRACK 12 AUDIO
    TITLE "7:cjc026_02150"
    INDEX 01 00:06:30
  TRACK 13 AUDIO
    TITLE "0:"
    INDEX 01 00:07:27
  TRACK 14 AUDIO
    TITLE "6:cjc026_02151"
    INDEX 01 00:07:52
  TRACK 15 AUDIO
    TITLE "0:"
    INDEX 01 00:08:52
  TRACK 16 AUDIO
    TITLE "7:cjc026_02152"
    INDEX 01 00:09:04
  TRACK 17 AUDIO
    TITLE "0:"
    INDEX 01 00:10:02
  TRACK 18 AUDIO
    TITLE "6:cjc026_02153"
    INDEX 01 00:10:29
  TRACK 19 AUDIO
    TITLE "0:"
    INDEX 01 00:11:33
  TRACK 20 AUDIO
    TITLE "7:cjc026_02154"
    INDEX 01 00:11:58
  TRACK 21 AUDIO
    TITLE "0:"
    INDEX 01 00:12:50
  TRACK 22 AUDIO
    TITLE "6:cjc026_02155"
    INDEX 01 00:13:02
  TRACK 23 AUDIO
    TITLE "0:"
    INDEX 01 00:14:02
  TRACK 24 AUDIO
    TITLE "7:cjc026_02156"
    INDEX 01 00:14:29
  TRACK 25 AUDIO
    TITLE "0:"
    INDEX 01 00:15:23
  TRACK 26 AUDIO
    TITLE "6:cjc026_02157"
    INDEX 01 00:15:48
  TRACK 27 AUDIO
    TITLE "0:"
    INDEX 01 00:16:49
  TRACK 28 AUDIO
    TITLE "7:cjc026_02158"
    INDEX 01 00:17:02
  TRACK 29 AUDIO
    TITLE "0:"
    INDEX 01 00:17:67
  TRACK 30 AUDIO
    TITLE "6:cjc026_02159"
    INDEX 01 00:18:17
  TRACK 31 AUDIO
    TITLE "0:"
    INDEX 01 00:19:24
  TRACK 32 AUDIO
    TITLE "7:cjc026_02160"
    INDEX 01 00:19:52
  TRACK 33 AUDIO
    TITLE "0:"
    INDEX 01 00:20:45
  TRACK 34 AUDIO
    TITLE "6:cjc026_02161"
    INDEX 01 00:21:00
  TRACK 35 AUDIO
    TITLE "0:"
    INDEX 01 00:22:07
  TRACK 36 AUDIO
    TITLE "7:cjc026_02162"
    INDEX 01 00:22:32
  TRACK 37 AUDIO
    TITLE "0:"
    INDEX 01 00:23:22
  TRACK 38 AUDIO
    TITLE "6:cjc026_02163"
    INDEX 01 00:23:50
  TRACK 39 AUDIO
    TITLE "0:"
    INDEX 01 00:24:43
  TRACK 40 AUDIO
    TITLE "7:cjc026_02164"
    INDEX 01 00:24:69
  TRACK 41 AUDIO
    TITLE "0:"
    INDEX 01 00:25:70
  TRACK 42 AUDIO
    TITLE "6:cjc026_02165"
    INDEX 01 00:26:20
  TRACK 43 AUDIO
    TITLE "0:"
    INDEX 01 00:27:22
  TRACK 44 AUDIO
    TITLE "7:cjc026_02166"
    INDEX 01 00:27:47
  TRACK 45 AUDIO
    TITLE "0:"
    INDEX 01 00:28:39
  TRACK 46 AUDIO
    TITLE "6:cjc026_02167"
    INDEX 01 00:28:66
  TRACK 47 AUDIO
    TITLE "0:"
    INDEX 01 00:30:03
  TRACK 48 AUDIO
    TITLE "7:cjc026_02168"
    INDEX 01 00:30:28
  TRACK 49 AUDIO
    TITLE "0:"
    INDEX 01 00:31:31
  TRACK 50 AUDIO
    TITLE "6:cjc026_02169"
    INDEX 01 00:31:59
  TRACK 51 AUDIO
    TITLE "0:"
    INDEX 01 00:33:03
  TRACK 52 AUDIO
    TITLE "7:cjc026_02170"
    INDEX 01 00:33:28
  TRACK 53 AUDIO
    TITLE "0:"
    INDEX 01 00:34:28
  TRACK 54 AUDIO
    TITLE "6:cjc026_02171"
    INDEX 01 00:34:55
  TRACK 55 AUDIO
    TITLE "0:"
    INDEX 01 00:35:51
  TRACK 56 AUDIO
    TITLE "7:cjc026_02172"
    INDEX 01 00:36:03
  TRACK 57 AUDIO
    TITLE "0:"
    INDEX 01 00:37:08
  TRACK 58 AUDIO
    TITLE "6:cjc026_02173"
    INDEX 01 00:37:34
  TRACK 59 AUDIO
    TITLE "0:"
    INDEX 01 00:38:31
  TRACK 60 AUDIO
    TITLE "7:cjc026_02174"
    INDEX 01 00:38:57
  TRACK 61 AUDIO
    TITLE "0:"
    INDEX 01 00:39:54
